<svg id="Layer_1" xmlns="http://www.w3.org/2000/svg" viewBox="0 0 30.2 78.4">
    <style>
        .st0{fill:#262627;} .st1{fill:#f4f1e9;}
    </style>
    <g id="Command_Module">
        <path class="st0" d="M17.2 65.2h-4L8 78c0 .2 3.2.4 7 .4s6.7-.2 6.7-.4L17 65.2z"/>
        <path class="st1" d="M17.2 30c0-.2-1-.4-2-.4s-2.2.2-2.2.4L5 43.3v22s4.6.3 10 .3 10-.2 10-.4v-22L17.3 30z"/>
    </g>
    <path id="Lunar_Module" class="st1" d="M25 4.8h-8L18.2 1H12l1 3.8H5.4L5.5.4 5 0 0 12.6l5 1.2v.3h1.6c-2.2 0-4 2-4 4s1.8 4 4 4H8v4.7l3.7 2h6.8l3.7-2V22h1.4c2.2 0 4-1.8 4-4s-1.8-4-4-4h1.7l5-1.2-5-12.6-.6.4.2 4.2z"/>
</svg>