<svg id="Layer_1" xmlns="http://www.w3.org/2000/svg" viewBox="0 0 106.5 566.7"><style>.st0{fill:#FFFFFF;} .st1{fill:#262627;}</style><g id="Saturn_V"><path class="st0" d="M106.5 535l-26-16.5V227L70 198v-65l-6.5-45V63L57 45V9l-3.5-7.9V0l-.2.6L53 0v1.1L49.5 9v36L43 63v25l-6.5 45v65L26 227v291.5L0 535v9h106.5z"/><path class="st1" d="M56.7 544h-6l-5.5 11.2v11.5h17v-11.5zM83.4 544h-6l-5.5 11.2v11.5h17v-11.5zM30 544h-6l-5.5 11.2v11.5h17v-11.5zM36.5 133.3H70v8H36.5zM74.9 211.7L70 198.3H36.5L26 227h27.3v-15.3zM80.5 330.7v-9H26v57h7.5v-48h18v48h20v-48zM80.5 454.8V446H26v98h7.5v-89.2h18V544h20v-89.2z"/><path class="st1" d="M106.5 544v-9l-26-16.5-.1 25.5z"/></g></svg>